<svg xmlns="http://www.w3.org/2000/svg" width="160" height="64" viewBox="0 0 160 64" role="img" aria-label="QRIS">
  <rect width="160" height="64" rx="14" fill="#fff"/>
  <path d="M18 18h10v10H18V18Zm14 0h4v4h-4v-4Zm8 0h10v10H40V18Zm-22 14h4v4h-4v-4Zm8 0h10v10H26V32Zm14 0h4v4h-4v-4Zm8 0h4v10h-4V32Zm-30 14h10v10H18V46Zm14 0h4v4h-4v-4Zm8 0h12v10H40V46Z" fill="#111827"/>
  <text x="68" y="30" font-family="Arial, Helvetica, sans-serif" font-size="19" font-weight="800" fill="#111827">QRIS</text>
  <text x="68" y="46" font-family="Arial, Helvetica, sans-serif" font-size="9" font-weight="700" fill="#ef4444">Quick Response Code</text>
</svg>
